<?xml version="1.0" standalone="yes"?>
<svg xmlns="http://www.w3.org/2000/svg" width="533" height="499">
<path style="fill:#010101; stroke:none;" d="M0 0L0 499L19 499L38.9892 449L85.5756 338L227 0L0 0z"/>
<path style="fill:#f4911f; stroke:none;" d="M19 499L83 499C88.8391 499 102.501 501.533 107.301 497.972C113.341 493.492 117.118 476.956 119.989 470C129.791 446.248 140.209 422.752 150.011 399C174.591 339.437 200.239 280.252 225.499 221C238.699 190.038 257.203 157.828 265 125L268 125C278.241 168.115 304.941 207.088 319 249C329.381 246.086 338.655 232.798 346.576 225.745C355.7 217.62 364.75 209.417 374.13 201.579C377.332 198.905 384.156 195.088 385.184 190.829C387.049 183.095 375.926 166.22 372.85 159C360.527 130.072 348.59 100.992 336.424 72C328.886 54.0344 321.668 35.8854 313.965 18C311.916 13.2437 309.417 1.86829 303.892 0.317902C298.286 -1.25522 290.802 0 285 0L245 0C240.025 0 229.537 -2.0224 226.074 2.3179C218.985 11.204 215.679 26.4883 211.397 37C201.99 60.09 192.104 83.0445 182.377 106C147.415 188.507 113.74 271.581 78.5725 354C63.9804 388.198 49.3622 422.473 35.5509 457C30.3184 470.081 20.4388 484.938 19 499z"/>
<path style="fill:#010101; stroke:none;" d="M306 0L364.85 141L380.15 177L384.593 190.83L365.996 207.87L320 250L268 125L265 125L222.85 227L147.576 404L122.15 464L108 499L425 499C418.424 471.252 402.167 443.258 391 417C387.627 409.068 377.24 393.62 378.571 385C379.602 378.323 388.152 371.234 392.127 365.996C405.279 348.66 425.637 332.873 436 314L438 314L455.989 358L494.85 451L514 499L533 499L533 0L306 0z"/>
<path style="fill:#ffff01; stroke:none;" d="M224 5L225 6L224 5M308 5L309 6L308 5M221 13L222 14L221 13M311 13L312 14L311 13M216 24L217 25L216 24M316 24L317 25L316 24M215 27L216 28L215 27M317 27L318 28L317 27M213 31L214 32L213 31M319 31L320 32L319 31M212 34L213 35L212 34M320 34L321 35L320 34M211 36L212 37L211 36M321 36L322 37L321 36M210 39L211 40L210 39M322 39L323 40L322 39M205 50L206 51L205 50M327 50L328 51L327 50M184 101L185 102L184 101M348 101L349 102L348 101M180 110L181 111L180 110M352 110L353 111L352 110M176 120L177 121L176 120M356 120L357 121L356 120M175 122L176 123L175 122M357 122L358 123L357 122M173 127L174 128L173 127M359 127L360 128L359 127M171 132L172 133L171 132M262 132L263 133L262 132M270 132L271 133L270 132M361 132L362 133L361 132M261 134L262 135L261 134M271 134L272 135L271 134M259 140L260 141L259 140M273 140L274 141L273 140M258 143L259 144L258 143M274 143L275 144L274 143M250 161L251 162L250 161M282 161L283 162L282 161M242 180L243 181L242 180M290 180L291 181L290 180M149 184L150 185L149 184M383 184L384 185L383 184M240 185L241 186L240 185M239 187L240 188L239 187M293 187L294 188L293 187M236 194L237 195L236 194M296 194L297 195L296 194M378 197L379 198L378 197M143 199L144 200L143 199M233 202L234 203L233 202M299 202L300 203L299 202M141 203L142 204L141 203M232 204L233 205L232 204M300 204L301 205L300 204M140 206L141 207L140 206z"/>
<path style="fill:#01e9ee; stroke:none;" d="M438 206L439 207L438 206z"/>
<path style="fill:#01bbd7; stroke:none;" d="M267 377L227 329L225 329C219.638 340.463 215.11 352.356 210.15 364C208.127 368.748 204.234 374.703 204.399 379.996C204.681 389.021 216.733 401.387 221.354 409C236.435 433.843 249.18 461.377 266 485L267 485C284.042 461.541 296.342 433.711 311.657 409C337.851 366.732 367.962 327.591 400.425 290C412.027 276.566 424.533 263.867 437.13 251.374C441.339 247.201 449.829 242.038 451.187 236C452.888 228.435 443.106 212.972 440 206C417.954 216.476 397.329 238.457 379.536 254.899C351.15 281.13 324.117 308.542 298.745 337.715C288.041 350.021 275.109 362.804 267 377z"/>
<path style="fill:#ffff01; stroke:none;" d="M139 208L140 209L139 208M364 209L365 210L364 209z"/>
<path style="fill:#01e9ee; stroke:none;" d="M441 209L442 210L441 209M442 212L443 213L442 212z"/>
<path style="fill:#ffff01; stroke:none;" d="M228 213L229 214L228 213M304 213L305 214L304 213z"/>
<path style="fill:#01e9ee; stroke:none;" d="M429 213L430 214L429 213M443 214L444 215L443 214z"/>
<path style="fill:#ffff01; stroke:none;" d="M136 215L137 216L136 215M357 215L358 216L357 215M356 216L357 217L356 216M355 217L356 218L355 217M226 218L227 219L226 218M306 218L307 219L306 218z"/>
<path style="fill:#01e9ee; stroke:none;" d="M422 218L423 219L422 218M445 219L446 220L445 219z"/>
<path style="fill:#ffff01; stroke:none;" d="M134 220L135 221L134 220M225 220L226 221L225 220z"/>
<path style="fill:#01e9ee; stroke:none;" d="M446 221L447 222L446 221z"/>
<path style="fill:#ffff01; stroke:none;" d="M224 223L225 224L224 223M308 223L309 224L308 223z"/>
<path style="fill:#01e9ee; stroke:none;" d="M447 224L448 225L447 224M411 227L412 228L411 227z"/>
<path style="fill:#ffff01; stroke:none;" d="M343 228L344 229L343 228M221 230L222 231L221 230M311 230L312 231L311 230z"/>
<path style="fill:#01e9ee; stroke:none;" d="M406 231L407 232L406 231M450 231L451 232L450 231z"/>
<path style="fill:#ffff01; stroke:none;" d="M220 232L221 233L220 232M312 232L313 233L312 232z"/>
<path style="fill:#01e9ee; stroke:none;" d="M404 233L405 234L404 233M451 233L452 234L451 233z"/>
<path style="fill:#ffff01; stroke:none;" d="M219 235L220 236L219 235M313 235L314 236L313 235M218 237L219 238L218 237M314 237L315 238L314 237M333 237L334 238L333 237z"/>
<path style="fill:#01e9ee; stroke:none;" d="M449 239L450 240L449 239z"/>
<path style="fill:#ffff01; stroke:none;" d="M330 240L331 241L330 240M329 241L330 242L329 241M216 242L217 243L216 242M316 242L317 243L316 242M328 242L329 243L328 242z"/>
<path style="fill:#01e9ee; stroke:none;" d="M392 243L393 244L392 243z"/>
<path style="fill:#ffff01; stroke:none;" d="M124 244L125 245L124 244z"/>
<path style="fill:#01e9ee; stroke:none;" d="M386 248L387 249L386 248M439 248L440 249L439 248z"/>
<path style="fill:#ffff01; stroke:none;" d="M213 249L214 250L213 249M320 249L321 250L320 249M212 251L213 252L212 251M211 253L212 254L211 253z"/>
<path style="fill:#01e9ee; stroke:none;" d="M379 255L380 256L379 255M374 259L375 260L374 259M428 259L429 260L428 259z"/>
<path style="fill:#ffff01; stroke:none;" d="M208 261L209 262L208 261z"/>
<path style="fill:#01e9ee; stroke:none;" d="M372 261L373 262L372 261M370 263L371 264L370 263z"/>
<path style="fill:#ffff01; stroke:none;" d="M115 266L116 267L115 266M205 268L206 269L205 268M113 270L114 271L113 270M204 270L205 271L204 270M112 273L113 274L112 273M202 275L203 276L202 275z"/>
<path style="fill:#01e9ee; stroke:none;" d="M413 275L414 276L413 275z"/>
<path style="fill:#ffff01; stroke:none;" d="M201 277L202 278L201 277M110 278L111 279L110 278z"/>
<path style="fill:#01e9ee; stroke:none;" d="M409 279L410 280L409 279M408 280L409 281L408 280z"/>
<path style="fill:#ffff01; stroke:none;" d="M199 282L200 283L199 282z"/>
<path style="fill:#01e9ee; stroke:none;" d="M401 288L402 289L401 288z"/>
<path style="fill:#ffff01; stroke:none;" d="M105 289L106 290L105 289M196 289L197 290L196 289z"/>
<path style="fill:#01e9ee; stroke:none;" d="M400 289L401 290L400 289z"/>
<path style="fill:#ffff01; stroke:none;" d="M194 294L195 295L194 294M102 296L103 297L102 296M193 296L194 297L193 296M100 301L101 302L100 301M191 301L192 302L191 301z"/>
<path style="fill:#01e9ee; stroke:none;" d="M388 303L389 304L388 303z"/>
<path style="fill:#ffff01; stroke:none;" d="M99 304L100 305L99 304M189 305L190 306L189 305z"/>
<path style="fill:#01e9ee; stroke:none;" d="M386 305L387 306L386 305z"/>
<path style="fill:#ffff01; stroke:none;" d="M98 306L99 307L98 306M97 308L98 309L97 308M188 308L189 309L188 308z"/>
<path style="fill:#01e9ee; stroke:none;" d="M324 309L325 310L324 309M382 310L383 311L382 310M322 311L323 312L322 311M381 311L382 312L381 311z"/>
<path style="fill:#ffff01; stroke:none;" d="M435 316L438 315L435 316z"/>
<path style="fill:#f4911f; stroke:none;" d="M514 499C512.08 480.231 498.225 458.481 491.011 441C473.693 399.035 457.416 356.023 438 315C430.877 317.884 425.81 325.36 420.845 331C410.214 343.076 399.715 355.214 389.884 367.961C386.338 372.558 377.629 379.794 377.938 386C378.276 392.821 384.019 401.737 386.719 408C393.029 422.636 399.166 437.341 405.421 452L419.421 485C420.972 488.635 422.431 495.548 425.699 497.972C430.499 501.533 444.161 499 450 499L514 499z"/>
<path style="fill:#ffff01; stroke:none;" d="M430 320L431 321L430 320z"/>
<path style="fill:#01e9ee; stroke:none;" d="M313 321L314 322L313 321M312 322L313 323L312 322M311 323L312 324L311 323z"/>
<path style="fill:#ffff01; stroke:none;" d="M181 324L182 325L181 324z"/>
<path style="fill:#01e9ee; stroke:none;" d="M369 326L370 327L369 326z"/>
<path style="fill:#ffff01; stroke:none;" d="M180 327L181 328L180 327M422 329L423 330L422 329M88 330L89 331L88 330z"/>
<path style="fill:#01e9ee; stroke:none;" d="M366 330L367 331L366 330M364 332L365 333L364 332M302 333L303 334L302 333M361 336L362 337L361 336z"/>
<path style="fill:#ffff01; stroke:none;" d="M415 337L416 338L415 337M85 338L86 339L85 338z"/>
<path style="fill:#01e9ee; stroke:none;" d="M235 339L236 340L235 339z"/>
<path style="fill:#ffff01; stroke:none;" d="M413 339L414 340L413 339z"/>
<path style="fill:#01e9ee; stroke:none;" d="M358 340L359 341L358 340M239 344L240 345L239 344M240 345L241 346L240 345M291 346L292 347L291 346z"/>
<path style="fill:#ffff01; stroke:none;" d="M80 349L81 350L80 349z"/>
<path style="fill:#01e9ee; stroke:none;" d="M287 351L288 352L287 351z"/>
<path style="fill:#ffff01; stroke:none;" d="M403 351L404 352L403 351z"/>
<path style="fill:#01e9ee; stroke:none;" d="M286 352L287 353L286 352z"/>
<path style="fill:#ffff01; stroke:none;" d="M78 354L79 355L78 354M454 354L455 355L454 354M168 355L169 356L168 355M77 356L78 357L77 356M455 356L456 357L455 356z"/>
<path style="fill:#01e9ee; stroke:none;" d="M251 358L252 359L251 358z"/>
<path style="fill:#ffff01; stroke:none;" d="M397 358L398 359L397 358z"/>
<path style="fill:#01e9ee; stroke:none;" d="M280 359L281 360L280 359M344 359L345 360L344 359M255 363L256 364L255 363z"/>
<path style="fill:#ffff01; stroke:none;" d="M73 366L74 367L73 366M72 368L73 369L72 368z"/>
<path style="fill:#01e9ee; stroke:none;" d="M259 368L260 369L259 368M273 368L274 369L273 368z"/>
<path style="fill:#ffff01; stroke:none;" d="M460 368L461 369L460 368z"/>
<path style="fill:#01e9ee; stroke:none;" d="M337 369L338 370L337 369M335 372L336 373L335 372z"/>
<path style="fill:#ffff01; stroke:none;" d="M160 374L161 375L160 374M69 375L70 376L69 375M463 375L464 376L463 375M67 380L68 381L67 380z"/>
<path style="fill:#01e9ee; stroke:none;" d="M203 380L204 381L203 380z"/>
<path style="fill:#ffff01; stroke:none;" d="M465 380L466 381L465 380M66 382L67 383L66 382M466 382L467 383L466 382z"/>
<path style="fill:#01e9ee; stroke:none;" d="M207 386L208 387L207 386M210 391L211 392L210 391M322 391L323 392L322 391M321 393L322 394L321 393z"/>
<path style="fill:#ffff01; stroke:none;" d="M380 393L381 394L380 393M61 394L62 395L61 394z"/>
<path style="fill:#01e9ee; stroke:none;" d="M212 394L213 395L212 394z"/>
<path style="fill:#ffff01; stroke:none;" d="M471 394L472 395L471 394z"/>
<path style="fill:#01e9ee; stroke:none;" d="M213 396L214 397L213 396M319 396L320 397L319 396M214 397L215 398L214 397M217 402L218 403L217 402M312 407L313 408L312 407M225 415L226 416L225 415M307 415L308 416L307 415M304 420L305 421L304 420M232 426L233 427L232 426M235 431L236 432L235 431M295 435L296 436L295 435M294 437L295 438L294 437z"/>
<path style="fill:#ffff01; stroke:none;" d="M41 442L42 443L41 442z"/>
<path style="fill:#01e9ee; stroke:none;" d="M241 442L242 443L241 442M291 442L292 443L291 442z"/>
<path style="fill:#ffff01; stroke:none;" d="M491 442L492 443L491 442z"/>
<path style="fill:#01e9ee; stroke:none;" d="M246 450L247 451L246 450M286 450L287 451L286 450z"/>
<path style="fill:#ffff01; stroke:none;" d="M36 454L37 455L36 454z"/>
<path style="fill:#01e9ee; stroke:none;" d="M284 454L285 455L284 454z"/>
<path style="fill:#ffff01; stroke:none;" d="M496 454L497 455L496 454z"/>
<path style="fill:#01e9ee; stroke:none;" d="M249 456L250 457L249 456M283 456L284 457L283 456z"/>
<path style="fill:#ffff01; stroke:none;" d="M35 457L36 458L35 457M497 457L498 458L497 457M34 459L35 460L34 459M498 459L499 460L498 459M33 461L34 462L33 461M499 461L500 462L499 461M122 463L123 464L122 463z"/>
<path style="fill:#01e9ee; stroke:none;" d="M279 463L280 464L279 463z"/>
<path style="fill:#ffff01; stroke:none;" d="M410 463L411 464L410 463M32 464L33 465L32 464M500 464L501 465L500 464z"/>
<path style="fill:#01e9ee; stroke:none;" d="M275 470L276 471L275 470z"/>
<path style="fill:#ffff01; stroke:none;" d="M29 471L30 472L29 471M503 471L504 472L503 471z"/>
<path style="fill:#01e9ee; stroke:none;" d="M258 472L259 473L258 472M274 472L275 473L274 472M260 475L261 476L260 475M261 477L262 478L261 477M270 479L271 480L270 479M269 481L270 482L269 481M267 484L268 485L267 484z"/>
</svg>
